<svg version="1.1" id="Layer_1" xmlns="http://www.w3.org/2000/svg" xmlns:xlink="http://www.w3.org/1999/xlink" x="0px" y="0px"
	 width="100%" viewBox="0 0 5000 2638" enable-background="new 0 0 5000 2638" xml:space="preserve">
<path fill="#FFFFFF" opacity="1.000000" stroke="none" 
	d="
M3356.000000,2640.000000 
	C2797.274658,2640.000000 2238.549072,2640.000000 1679.049072,2639.085449 
	C1678.287109,2636.838379 1678.310913,2635.505371 1678.310913,2634.172607 
	C1678.312622,1759.773926 1678.313110,885.375183 1678.299927,10.976440 
	C1678.299927,7.984292 1678.104370,4.992146 1678.000000,2.000000 
	C2236.725342,2.000000 2795.450928,2.000000 3354.825684,2.906377 
	C3355.437500,6.810879 3355.366699,9.809004 3355.366699,12.807127 
	C3355.361816,884.898132 3355.361328,1756.989136 3355.388184,2629.080078 
	C3355.388184,2632.719971 3355.787109,2636.360107 3356.000000,2640.000000 
z"/>
<path fill="#009247" opacity="1.000000" stroke="none" 
	d="
M1677.077515,2.000000 
	C1678.104370,4.992146 1678.299927,7.984292 1678.299927,10.976440 
	C1678.313110,885.375183 1678.312622,1759.773926 1678.310913,2634.172607 
	C1678.310913,2635.505371 1678.287109,2636.838379 1678.137207,2639.085449 
	C1119.412109,2640.000000 560.824219,2640.000000 2.118179,2640.000000 
	C2.118179,1760.869507 2.118179,881.738953 2.118179,2.000000 
	C560.051514,2.000000 1118.103271,2.000000 1677.077515,2.000000 
z"/>
<path fill="#CF2A38" opacity="1.000000" stroke="none" 
	d="
M3356.937012,2640.000000 
	C3355.787109,2636.360107 3355.388184,2632.719971 3355.388184,2629.080078 
	C3355.361328,1756.989136 3355.361816,884.898132 3355.366699,12.807127 
	C3355.366699,9.809004 3355.437500,6.810879 3355.737549,2.906377 
	C3904.585938,2.000000 4453.171875,2.000000 5001.878906,2.000000 
	C5001.878906,881.123291 5001.878906,1760.246582 5001.878906,2640.000000 
	C4453.958496,2640.000000 3905.916504,2640.000000 3356.937012,2640.000000 
z"/>
</svg>